<?xml version="1.0" encoding="utf-8"?>
<!-- Generator: Adobe Illustrator 16.0.2, SVG Export Plug-In . SVG Version: 6.00 Build 0)  -->
<!DOCTYPE svg PUBLIC "-//W3C//DTD SVG 1.1//EN" "http://www.w3.org/Graphics/SVG/1.1/DTD/svg11.dtd">
<svg version="1.1" id="圖層_1" focusable="false" xmlns="http://www.w3.org/2000/svg" xmlns:xlink="http://www.w3.org/1999/xlink"
	 x="0px" y="0px" width="612px" height="792px" viewBox="0 0 612 792" enable-background="new 0 0 612 792" xml:space="preserve">
<path fill="#FEFEFE" d="M275.477,776.021C50.719,450.189,9,416.748,9,297C9,132.971,141.971,0,306,0c164.028,0,297,132.972,297,297
	c0,119.748-41.72,153.189-266.478,479.021C321.774,797.328,290.225,797.326,275.477,776.021L275.477,776.021z M306,420.75
	c68.345,0,123.75-55.404,123.75-123.75S374.345,173.25,306,173.25c-68.346,0-123.75,55.404-123.75,123.75S237.655,420.75,306,420.75
	z"/>
</svg>
